<svg width="16" height="16" viewBox="0 0 16 16" fill="none" xmlns="http://www.w3.org/2000/svg">
<g opacity="0.7">
<path fill-rule="evenodd" clip-rule="evenodd" d="M0 4.8C0 4.47004 0.130844 4.1536 0.3648 3.92036C0.598044 3.6864 0.914489 3.55556 1.24444 3.55556H7.28889C7.61884 3.55556 7.93529 3.6864 8.16853 3.92036C8.40249 4.1536 8.53333 4.47004 8.53333 4.8V10.8444C8.53333 11.1744 8.40249 11.4908 8.16853 11.7241C7.93529 11.958 7.61884 12.0889 7.28889 12.0889H1.24444C0.914489 12.0889 0.598044 11.958 0.3648 11.7241C0.130844 11.4908 0 11.1744 0 10.8444V4.8ZM1.06667 4.8V10.8444C1.06667 10.8914 1.08516 10.9369 1.11858 10.9703C1.152 11.0037 1.19751 11.0222 1.24444 11.0222H7.28889C7.33582 11.0222 7.38133 11.0037 7.41476 10.9703C7.44818 10.9369 7.46667 10.8914 7.46667 10.8444V4.8C7.46667 4.75307 7.44818 4.70756 7.41476 4.67413C7.38133 4.64071 7.33582 4.62222 7.28889 4.62222H1.24444C1.19751 4.62222 1.152 4.64071 1.11858 4.67413C1.08516 4.70756 1.06667 4.75307 1.06667 4.8Z" fill="white"/>
<path fill-rule="evenodd" clip-rule="evenodd" d="M11.0222 4.8C11.0222 4.11307 11.579 3.55556 12.2667 3.55556H14.7556C15.4432 3.55556 16 4.11307 16 4.8V10.8444C16 11.5314 15.4432 12.0889 14.7556 12.0889H12.2667C11.579 12.0889 11.0222 11.5314 11.0222 10.8444V4.8ZM12.0889 4.8V10.8444C12.0889 10.9426 12.1685 11.0222 12.2667 11.0222H14.7556C14.8537 11.0222 14.9333 10.9426 14.9333 10.8444V4.8C14.9333 4.70187 14.8537 4.62222 14.7556 4.62222H12.2667C12.1685 4.62222 12.0889 4.70187 12.0889 4.8Z" fill="white"/>
<path fill-rule="evenodd" clip-rule="evenodd" d="M0.533333 5.68889H8C8.2944 5.68889 8.53333 5.92782 8.53333 6.22222V9.42222C8.53333 9.71662 8.2944 9.95556 8 9.95556H0.533333C0.238933 9.95556 0 9.71662 0 9.42222V6.22222C0 5.92782 0.238933 5.68889 0.533333 5.68889Z" fill="white"/>
<path fill-rule="evenodd" clip-rule="evenodd" d="M11.5556 5.68889H15.4667C15.7611 5.68889 16 5.92782 16 6.22222V9.42222C16 9.71662 15.7611 9.95556 15.4667 9.95556H11.5556C11.2612 9.95556 11.0222 9.71662 11.0222 9.42222V6.22222C11.0222 5.92782 11.2612 5.68889 11.5556 5.68889Z" fill="white"/>
<path fill-rule="evenodd" clip-rule="evenodd" d="M8.35556 0H11.2C11.4944 0 11.7333 0.238933 11.7333 0.533333V1.6C11.7333 1.74151 11.6772 1.87733 11.5769 1.97689L10.1547 3.39911C9.94631 3.60747 9.60925 3.60747 9.40089 3.39911L7.97867 1.97689C7.8784 1.87733 7.82222 1.74151 7.82222 1.6V0.533333C7.82222 0.238933 8.06116 0 8.35556 0Z" fill="white"/>
<path fill-rule="evenodd" clip-rule="evenodd" d="M7.82222 15.4667V14.4C7.82222 14.2585 7.8784 14.1227 7.97867 14.0231L9.40089 12.6009C9.60925 12.3925 9.94631 12.3925 10.1547 12.6009L11.5769 14.0231C11.6772 14.1227 11.7333 14.2585 11.7333 14.4V15.4667C11.7333 15.7611 11.4944 16 11.2 16H8.35556C8.06116 16 7.82222 15.7611 7.82222 15.4667Z" fill="white"/>
<path fill-rule="evenodd" clip-rule="evenodd" d="M2.48889 4.08889C2.48889 3.79449 2.72782 3.55556 3.02222 3.55556C3.31662 3.55556 3.55556 3.79449 3.55556 4.08889V6.22222C3.55556 6.51662 3.31662 6.75556 3.02222 6.75556C2.72782 6.75556 2.48889 6.51662 2.48889 6.22222V4.08889Z" fill="white"/>
<path fill-rule="evenodd" clip-rule="evenodd" d="M2.48889 9.42222C2.48889 9.12782 2.72782 8.88889 3.02222 8.88889C3.31662 8.88889 3.55556 9.12782 3.55556 9.42222V11.5556C3.55556 11.85 3.31662 12.0889 3.02222 12.0889C2.72782 12.0889 2.48889 11.85 2.48889 11.5556V9.42222Z" fill="white"/>
<path fill-rule="evenodd" clip-rule="evenodd" d="M4.97778 4.08889C4.97778 3.79449 5.21671 3.55556 5.51111 3.55556C5.80551 3.55556 6.04444 3.79449 6.04444 4.08889V6.22222C6.04444 6.51662 5.80551 6.75556 5.51111 6.75556C5.21671 6.75556 4.97778 6.51662 4.97778 6.22222V4.08889Z" fill="white"/>
<path fill-rule="evenodd" clip-rule="evenodd" d="M12.9778 4.08889C12.9778 3.79449 13.2167 3.55556 13.5111 3.55556C13.8055 3.55556 14.0444 3.79449 14.0444 4.08889V6.22222C14.0444 6.51662 13.8055 6.75556 13.5111 6.75556C13.2167 6.75556 12.9778 6.51662 12.9778 6.22222V4.08889Z" fill="white"/>
<path fill-rule="evenodd" clip-rule="evenodd" d="M4.97778 9.42222C4.97778 9.12782 5.21671 8.88889 5.51111 8.88889C5.80551 8.88889 6.04444 9.12782 6.04444 9.42222V11.5556C6.04444 11.85 5.80551 12.0889 5.51111 12.0889C5.21671 12.0889 4.97778 11.85 4.97778 11.5556V9.42222Z" fill="white"/>
<path fill-rule="evenodd" clip-rule="evenodd" d="M12.9778 9.42222C12.9778 9.12782 13.2167 8.88889 13.5111 8.88889C13.8055 8.88889 14.0444 9.12782 14.0444 9.42222V11.5556C14.0444 11.85 13.8055 12.0889 13.5111 12.0889C13.2167 12.0889 12.9778 11.85 12.9778 11.5556V9.42222Z" fill="white"/>
<path fill-rule="evenodd" clip-rule="evenodd" d="M10.3111 12.9778C10.3111 13.2722 10.0722 13.5111 9.77778 13.5111C9.48338 13.5111 9.24444 13.2722 9.24444 12.9778V3.02222C9.24444 2.72782 9.48338 2.48889 9.77778 2.48889C10.0722 2.48889 10.3111 2.72782 10.3111 3.02222V12.9778Z" fill="white"/>
</g>
</svg>
