<svg width="17" height="16" viewBox="0 0 17 16" fill="none" xmlns="http://www.w3.org/2000/svg">
<path d="M0.718289 9.59372e-08C0.321589 9.59372e-08 0 0.311454 0 0.695652C0 1.07985 0.321589 1.3913 0.718289 1.3913H1.99634C2.10092 1.3913 2.20285 1.42317 2.28769 1.4824C2.37253 1.54162 2.43597 1.6252 2.46904 1.72129L4.83723 8.60326C4.9424 8.90882 4.95577 9.23781 4.87511 9.55027L4.6801 10.3071C4.39398 11.4155 5.28487 12.5217 6.4646 12.5217H15.0841C15.4808 12.5217 15.8024 12.2103 15.8024 11.8261C15.8024 11.4419 15.4808 11.1304 15.0841 11.1304H6.4646C6.18491 11.1304 6.00536 10.9082 6.07319 10.6454L6.22025 10.0765C6.24517 9.98016 6.30263 9.8946 6.38351 9.83347C6.46438 9.77234 6.56403 9.73913 6.66662 9.73913H14.3658C14.6751 9.73929 14.9497 9.54772 15.0476 9.26359L16.9626 3.69837C17.1177 3.24774 16.7712 2.78239 16.2808 2.78261H4.70816C4.60358 2.78261 4.50165 2.75074 4.41681 2.69152C4.33197 2.63229 4.26852 2.54872 4.23545 2.45263L3.55497 0.475544C3.45709 0.191412 3.18243 -0.000156502 2.87316 9.59372e-08H0.718289ZM5.74632 13.2174C4.95291 13.2174 4.30974 13.8403 4.30974 14.6087C4.30974 15.3771 4.95291 16 5.74632 16C6.53972 16 7.18289 15.3771 7.18289 14.6087C7.18289 13.8403 6.53972 13.2174 5.74632 13.2174ZM14.3658 13.2174C13.5724 13.2174 12.9292 13.8403 12.9292 14.6087C12.9292 15.3771 13.5724 16 14.3658 16C15.1592 16 15.8024 15.3771 15.8024 14.6087C15.8024 13.8403 15.1592 13.2174 14.3658 13.2174Z" fill="white" fill-opacity="0.7"/>
</svg>
