<svg width="17" height="17" viewBox="0 0 17 17" fill="none" xmlns="http://www.w3.org/2000/svg">
<path d="M16.0969 5.8964L16.6373 5.35554C16.8711 5.12161 17 4.80971 17 4.47867C17 4.14693 16.8711 3.83574 16.6366 3.60181L15.5132 2.47756L16.0841 1.90622C16.3611 1.62905 16.3611 1.18105 16.0841 0.903887C15.8072 0.626722 15.3595 0.626722 15.0825 0.903887L14.5116 1.47523L13.3889 0.351684C12.9207 -0.116873 12.1047 -0.117582 11.6358 0.351684L11.0953 0.892545L10.9098 0.706823C10.4423 0.238266 9.62554 0.237557 9.15662 0.706823L8.74154 1.12222C8.25846 1.60566 8.25846 2.3925 8.74154 2.87665L10.9275 5.06419L5.07096 10.9251L2.88504 8.73468C2.40267 8.25123 1.61571 8.25265 1.13262 8.73468L0.717542 9.15007C0.483083 9.3847 0.354167 9.6966 0.354167 10.0276C0.354167 10.3594 0.483083 10.6706 0.717542 10.9045L0.903833 11.0909L0.363375 11.6318C0.128917 11.8657 0 12.1776 0 12.5087C0 12.8404 0.128917 13.1516 0.363375 13.3855L1.48679 14.5098L0.915875 15.0811C0.638917 15.3583 0.638917 15.8063 0.915875 16.0834C1.054 16.2217 1.23533 16.2911 1.41667 16.2911C1.598 16.2911 1.77933 16.2217 1.91746 16.0834L2.48837 15.5121L3.61108 16.6356C3.84554 16.871 4.1565 17 4.488 17C4.81879 17 5.13046 16.871 5.36421 16.6364L5.90467 16.0955L6.09025 16.2812C6.32471 16.5158 6.63567 16.6449 6.96717 16.6449C7.29796 16.6449 7.60962 16.5158 7.84338 16.2812L8.25846 15.8658C8.74154 15.3824 8.74154 14.5955 8.25846 14.1114L6.07254 11.9238L11.929 6.06298L14.115 8.25052C14.3565 8.49225 14.6738 8.61275 14.9912 8.61275C15.3085 8.61275 15.6258 8.49154 15.8674 8.24982L16.2825 7.83442C16.5169 7.59979 16.6458 7.2886 16.6458 6.95756C16.6458 6.62582 16.5169 6.31462 16.2825 6.0807L16.0969 5.8964Z" fill="white" fill-opacity="0.7"/>
</svg>
