<svg width="17" height="17" viewBox="0 0 17 17" fill="none" xmlns="http://www.w3.org/2000/svg">
<path fill-rule="evenodd" clip-rule="evenodd" d="M0 3.4C0 1.52223 1.52223 0 3.4 0H13.6C15.4778 0 17 1.52223 17 3.4V11.3333C17 13.2111 15.4778 14.7333 13.6 14.7333H10.7405L8.92647 16.8065C8.81886 16.9295 8.6634 17 8.5 17C8.3366 17 8.18114 16.9295 8.07353 16.8065L6.25954 14.7333H3.4C1.52223 14.7333 0 13.2111 0 11.3333V3.4ZM8.5 3.4C8.76455 3.4 8.99391 3.58306 9.05256 3.84101L9.36609 5.21982C9.5111 5.85758 10.0091 6.35556 10.6468 6.50057L12.0257 6.81411C12.2836 6.87276 12.4667 7.10212 12.4667 7.36667C12.4667 7.63122 12.2836 7.86057 12.0257 7.91922L10.6468 8.23276C10.0091 8.37777 9.5111 8.87576 9.36609 9.51351L9.05256 10.8923C8.99391 11.1503 8.76455 11.3333 8.5 11.3333C8.23545 11.3333 8.00609 11.1503 7.94744 10.8923L7.63391 9.51351C7.4889 8.87576 6.99091 8.37777 6.35315 8.23276L4.97434 7.91922C4.71639 7.86057 4.53333 7.63122 4.53333 7.36667C4.53333 7.10212 4.71639 6.87276 4.97434 6.81411L6.35315 6.50057C6.99091 6.35556 7.4889 5.85758 7.63391 5.21982L7.94744 3.84101C8.00609 3.58306 8.23545 3.4 8.5 3.4Z" fill="white" fill-opacity="0.7"/>
</svg>
