<svg width="17" height="15" viewBox="0 0 17 15" fill="none" xmlns="http://www.w3.org/2000/svg">
<path d="M15.5833 2.25003H12.0417V1.50001C12.0417 0.672748 11.4063 0 10.625 0H6.37499C5.59369 0 4.95831 0.672713 4.95831 1.50001V2.24999H1.41667C0.635341 2.25003 0 2.92274 0 3.75V5.99999C0 6.82729 0.635341 7.5 1.41667 7.5H7.08334V7.12499C7.08334 6.91771 7.24175 6.74998 7.43752 6.74998H9.56252C9.75828 6.74998 9.91669 6.91771 9.91669 7.12499V7.5H15.5834C16.3646 7.5 17 6.82729 17 5.99999V3.75C17 2.92274 16.3646 2.25003 15.5833 2.25003ZM10.625 2.25003H6.37499V1.50001H10.625V2.25003Z" fill="white" fill-opacity="0.7"/>
<path d="M16.8035 7.90465C16.6828 7.8413 16.5386 7.85596 16.432 7.94163C16.1803 8.14343 15.8869 8.24999 15.5833 8.24999H9.91666V9.37498C9.91666 9.58226 9.75825 9.74999 9.56248 9.74999H7.43749C7.24172 9.74999 7.08331 9.58226 7.08331 9.37498V8.24999H1.41667C1.113 8.24999 0.819717 8.14343 0.567905 7.94163C0.461025 7.85522 0.317156 7.84056 0.196429 7.90465C0.0761014 7.96803 0 8.09801 0 8.24049V13.5C0 14.3273 0.635341 15 1.41667 15H15.5833C16.3646 15 17 14.3273 17 13.5V8.24049C17 8.09801 16.9239 7.96803 16.8035 7.90465Z" fill="white" fill-opacity="0.7"/>
</svg>
