<svg width="17" height="17" viewBox="0 0 17 17" fill="none" xmlns="http://www.w3.org/2000/svg">
<path d="M10.0707 14.7718L8.13096 15.4154C7.80683 15.5237 7.46125 15.5527 7.12347 15.5C6.78568 15.4473 6.46562 15.3143 6.19037 15.1124C5.91513 14.9105 5.69279 14.6456 5.54217 14.3401C5.39155 14.0345 5.31709 13.6974 5.32508 13.3571H3.04987C2.8881 13.3571 2.73295 13.2932 2.61856 13.1793C2.50416 13.0655 2.4399 12.911 2.4399 12.75C2.4399 12.589 2.50416 12.4345 2.61856 12.3207C2.73295 12.2068 2.8881 12.1429 3.04987 12.1429H5.63007L6.09975 10.795C6.15455 10.6272 6.23256 10.4678 6.33154 10.3214H3.04987C2.8881 10.3214 2.73295 10.2575 2.61856 10.1436C2.50416 10.0297 2.4399 9.87531 2.4399 9.71429C2.4399 9.55326 2.50416 9.39883 2.61856 9.28497C2.73295 9.17111 2.8881 9.10714 3.04987 9.10714H7.45999L9.28991 7.28571H3.04987C2.8881 7.28571 2.73295 7.22175 2.61856 7.10789C2.50416 6.99402 2.4399 6.8396 2.4399 6.67857C2.4399 6.51755 2.50416 6.36312 2.61856 6.24926C2.73295 6.1354 2.8881 6.07143 3.04987 6.07143H10.3696C10.4081 6.06798 10.4469 6.06798 10.4855 6.07143L13.0169 3.55179C13.141 3.438 13.2758 3.33634 13.4194 3.24821V1.82143C13.4194 1.33836 13.2266 0.875068 12.8835 0.533484C12.5403 0.1919 12.0748 0 11.5895 0H1.82992C1.3446 0 0.87915 0.1919 0.535972 0.533484C0.192795 0.875068 0 1.33836 0 1.82143V15.1786C0 15.6616 0.192795 16.1249 0.535972 16.4665C0.87915 16.8081 1.3446 17 1.82992 17H11.5895C12.0748 17 12.5403 16.8081 12.8835 16.4665C13.2266 16.1249 13.4194 15.6616 13.4194 15.1786V11.7604L10.9063 14.2618C10.6719 14.4947 10.3856 14.6694 10.0707 14.7718ZM3.04987 3.03571H10.3696C10.5313 3.03571 10.6865 3.09968 10.8009 3.21354C10.9153 3.3274 10.9795 3.48183 10.9795 3.64286C10.9795 3.80388 10.9153 3.95831 10.8009 4.07217C10.6865 4.18603 10.5313 4.25 10.3696 4.25H3.04987C2.8881 4.25 2.73295 4.18603 2.61856 4.07217C2.50416 3.95831 2.4399 3.80388 2.4399 3.64286C2.4399 3.48183 2.50416 3.3274 2.61856 3.21354C2.73295 3.09968 2.8881 3.03571 3.04987 3.03571ZM17 5.72536C17.0012 6.2074 16.8104 6.67025 16.4693 7.0125L15.6032 7.89286L13.0169 5.31857L13.8769 4.4625C14.2246 4.13005 14.688 3.94438 15.1701 3.94438C15.6522 3.94438 16.1156 4.13005 16.4632 4.4625C16.8006 4.79778 16.9932 5.25088 17 5.72536ZM12.1507 6.15036L14.7431 8.73071L10.0463 13.3996C9.94672 13.5015 9.82293 13.5767 9.6864 13.6182L7.74668 14.2618C7.65299 14.296 7.55368 14.3125 7.45389 14.3104C7.30773 14.3099 7.1638 14.2747 7.03414 14.2075C6.90448 14.1404 6.79287 14.0433 6.70865 13.9244C6.62444 13.8055 6.57006 13.6682 6.55009 13.5241C6.53011 13.38 6.54511 13.2332 6.59383 13.0961L7.2404 11.1654C7.28213 11.0295 7.35766 10.9062 7.45999 10.8071L12.1507 6.15036Z" fill="white" fill-opacity="0.7"/>
</svg>
